<?xml version="1.0" encoding="UTF-8"?>
<svg xmlns="http://www.w3.org/2000/svg" version="1.1" width="2000" height="987">
  <path d="M0 0 C1.32 0 2.64 0 4 0 C4.89109627 38.34912766 4.29200001 78.26161714 -3 116 C-3.17756836 116.9684082 -3.35513672 117.93681641 -3.53808594 118.93457031 C-11.2511922 160.44235607 -27.40472001 201.33706922 -57 232 C-57.80050781 232.86367187 -58.60101562 233.72734375 -59.42578125 234.6171875 C-77.35212365 253.45304973 -102.03028948 265.12104813 -128.06079102 266.4362793 C-138.14134166 267.00134974 -143.41138997 270.54657279 -151.0859375 276.890625 C-162.66082747 286.38767545 -176.78187369 289.73456211 -191 294 C-57.35 294.495 -57.35 294.495 79 295 C78.21596866 300.48821938 77.46740518 303.83371495 75.3828125 308.74609375 C75.12498993 309.36090103 74.86716736 309.97570831 74.60153198 310.60914612 C73.78369296 312.5552758 72.95483534 314.49645949 72.125 316.4375 C71.30467624 318.37589646 70.48670617 320.3152647 69.66989136 322.25514221 C68.92600143 324.01870444 68.17631254 325.77981735 67.42626953 327.54077148 C65.86541866 331.32640927 64.43777692 335.16592822 63 339 C-456.42 339 -975.84 339 -1511 339 C-1512.65 348.57 -1514.3 358.14 -1516 368 C-1517.69265757 377.54485816 -1519.39543574 387.08689362 -1521.125 396.625 C-1521.30618 397.6256461 -1521.30618 397.6256461 -1521.4910202 398.64650726 C-1527.05238431 429.35453461 -1532.96500275 459.99406273 -1538.88214111 490.63516235 C-1543.58646155 515.0005811 -1548.22902108 539.36695827 -1552.5 563.8125 C-1566.90919699 646.03243494 -1584.51720664 729.53766518 -1619 806 C-1619.70286133 807.56500244 -1619.70286133 807.56500244 -1620.41992188 809.16162109 C-1634.42469612 840.05655037 -1651.92273217 869.75731791 -1674.9765625 894.79296875 C-1676.74448863 896.72130517 -1678.43846046 898.68847978 -1680.125 900.6875 C-1694.94990407 917.55252849 -1712.00618928 931.11309481 -1731 943 C-1731.58442871 943.37044434 -1732.16885742 943.74088867 -1732.77099609 944.12255859 C-1771.40287953 968.2768004 -1815.20765841 974.42259265 -1859.8112793 974.20581055 C-1863.66527012 974.18760501 -1867.5190175 974.1853016 -1871.37304688 974.18554688 C-1887.93361492 974.16140899 -1904.45614336 973.73565042 -1921 973 C-1921.24783149 968.60990841 -1920.4649792 966.81261565 -1917.54638672 963.44677734 C-1917.0567041 962.90746582 -1916.56702148 962.3681543 -1916.0625 961.8125 C-1915.56250488 961.24225098 -1915.06250977 960.67200195 -1914.54736328 960.08447266 C-1913.04472724 958.37734434 -1911.52583624 956.6863971 -1910 955 C-1909.20207031 954.11441406 -1908.40414063 953.22882812 -1907.58203125 952.31640625 C-1906.11449957 950.6930305 -1904.64445707 949.07192089 -1903.171875 947.453125 C-1900.91177847 944.9003541 -1898.764029 942.27982323 -1896.625 939.625 C-1892.9498533 935.07908684 -1889.0920627 930.77129385 -1885.10180664 926.50512695 C-1881.12603227 922.22422363 -1877.52483585 917.72310329 -1873.97265625 913.08203125 C-1871.73515339 910.72046883 -1871.16854844 910.34870763 -1868 910 C-1865.37338196 910.49839144 -1862.87162335 911.07357861 -1860.296875 911.765625 C-1859.54142395 911.95968933 -1858.7859729 912.15375366 -1858.00762939 912.35369873 C-1855.58600728 912.9768888 -1853.16788306 913.61247035 -1850.75 914.25 C-1811.84087221 924.43592788 -1771.14295072 929.42204511 -1734.68676758 908.67382812 C-1727.97270974 904.62373246 -1722.51138631 899.52834442 -1717 894 C-1716.34773438 893.40703125 -1715.69546875 892.8140625 -1715.0234375 892.203125 C-1709.32439665 886.94647545 -1705.14873694 880.4947489 -1701 874 C-1700.45472656 873.15646973 -1700.45472656 873.15646973 -1699.8984375 872.29589844 C-1670.25887952 825.62425634 -1665.38814189 764.03326863 -1656.32414436 710.63502693 C-1654.18553572 698.0388933 -1651.99279323 685.45299435 -1649.75 672.875 C-1649.58770905 671.96440826 -1649.42541809 671.05381653 -1649.25820923 670.1156311 C-1647.1085697 658.06954806 -1644.91261102 646.0323473 -1642.6875 634 C-1635.31645549 594.12754749 -1628.169171 554.22448341 -1621.375 514.25 C-1617.61202688 492.11425766 -1613.79558687 469.99523524 -1609.68334961 447.92114258 C-1605.69231423 426.48048243 -1601.8492533 405.01331045 -1597.99582291 383.54757309 C-1597.4382024 380.44141266 -1596.88042506 377.33528043 -1596.32260132 374.22915649 C-1594.21378809 362.48633377 -1592.10620305 350.74329116 -1590 339 C-1591.21300278 339.00222061 -1592.42600555 339.00444122 -1593.67576599 339.00672913 C-1605.08046604 339.02695872 -1616.48516248 339.04197126 -1627.88987637 339.05181217 C-1633.75382164 339.05704146 -1639.61775249 339.06413994 -1645.48168945 339.07543945 C-1651.13561712 339.0862667 -1656.78953087 339.09227649 -1662.44346809 339.09487724 C-1664.6057361 339.09673179 -1666.76800331 339.10035295 -1668.93026543 339.10573006 C-1671.94758657 339.11293833 -1674.96484943 339.11399103 -1677.98217773 339.11352539 C-1678.8856041 339.11712067 -1679.78903046 339.12071594 -1680.71983337 339.12442017 C-1686.88594784 339.11405216 -1686.88594784 339.11405216 -1688 338 C-1688.11356724 334.9936175 -1688.16418912 332.01107558 -1688.16796875 329.00390625 C-1688.17129715 328.1000267 -1688.17462555 327.19614716 -1688.17805481 326.26487732 C-1688.18312796 324.34903473 -1688.18546302 322.43318328 -1688.18530273 320.51733398 C-1688.18748813 317.57846582 -1688.20563665 314.63997348 -1688.22460938 311.70117188 C-1688.22754337 309.84375129 -1688.22952813 307.98632891 -1688.23046875 306.12890625 C-1688.23765427 305.24554092 -1688.24483978 304.3621756 -1688.25224304 303.45204163 C-1688.22882139 297.22882139 -1688.22882139 297.22882139 -1686 295 C-1684.14531517 294.75390434 -1684.14531517 294.75390434 -1681.84921265 294.75949097 C-1680.97980545 294.75674164 -1680.11039825 294.75399231 -1679.21464539 294.75115967 C-1678.25870987 294.75835022 -1677.30277435 294.76554077 -1676.31787109 294.77294922 C-1675.31296127 294.77265717 -1674.30805145 294.77236511 -1673.27268982 294.77206421 C-1669.93951893 294.77346144 -1666.60656951 294.78904118 -1663.2734375 294.8046875 C-1660.96701174 294.80841623 -1658.6605844 294.81126386 -1656.35415649 294.81326294 C-1650.27465464 294.82091041 -1644.19524789 294.84056846 -1638.11578369 294.8626709 C-1631.91574388 294.88310537 -1625.71568875 294.89225952 -1619.515625 294.90234375 C-1607.34370815 294.9238133 -1595.17186197 294.95796265 -1583 295 C-1582.36156577 292.61719918 -1581.72390176 290.23419661 -1581.08666992 287.85107422 C-1580.90750786 287.18271042 -1580.72834579 286.51434662 -1580.54375458 285.82572937 C-1579.52696594 282.02053551 -1578.54340114 278.2100939 -1577.61328125 274.3828125 C-1562.05690043 210.95150637 -1525.18296941 148.30269684 -1473 108 C-1471.56527344 106.83984375 -1471.56527344 106.83984375 -1470.1015625 105.65625 C-1448.59180619 88.53513415 -1423.84918221 75.25274163 -1398 66 C-1397.24895996 65.72994141 -1396.49791992 65.45988281 -1395.72412109 65.18164062 C-1366.05212465 54.7205668 -1334.33434832 49.90622692 -1302.94140625 49.796875 C-1301.6358226 49.79117493 -1300.33023895 49.78547485 -1298.98509216 49.77960205 C-1296.23623274 49.76919279 -1293.48740165 49.76328577 -1290.73852539 49.75976562 C-1287.97048629 49.75539976 -1285.20276218 49.74156118 -1282.43481445 49.71875 C-1265.72960535 49.58367937 -1249.49507771 50.11578123 -1233 53 C-1233 56.66615788 -1234.15533225 57.52951449 -1236.62521362 60.06512451 C-1237.15970123 60.59825256 -1237.69418884 61.13138062 -1238.24487305 61.68066406 C-1238.80254868 62.24841553 -1239.3602243 62.81616699 -1239.93479919 63.40112305 C-1241.78580526 65.28069108 -1243.64799126 67.14867578 -1245.51171875 69.015625 C-1246.80034143 70.3138825 -1248.08873469 71.61236775 -1249.37690735 72.91107178 C-1252.08112905 75.63327516 -1254.7915013 78.34918459 -1257.50561523 81.06152344 C-1260.98699119 84.54259432 -1264.44727023 88.04384564 -1267.90256023 91.55078506 C-1270.55773438 94.23927028 -1273.22638691 96.91405431 -1275.89905739 99.58513641 C-1277.18094233 100.87056854 -1278.45794908 102.1608842 -1279.72998619 103.45606232 C-1281.50883158 105.26421518 -1283.30557827 107.05246139 -1285.1081543 108.83691406 C-1285.63252075 109.37813904 -1286.15688721 109.91936401 -1286.69714355 110.47698975 C-1288.19682312 111.9385376 -1288.19682312 111.9385376 -1291 114 C-1294.70365012 113.84631219 -1297.42572377 112.4400418 -1300.66796875 110.70703125 C-1301.55210449 110.24425781 -1302.43624023 109.78148438 -1303.34716797 109.3046875 C-1304.28447754 108.81226562 -1305.22178711 108.31984375 -1306.1875 107.8125 C-1315.89787431 102.84909916 -1325.47415308 98.84740229 -1336 96 C-1337.216875 95.66226563 -1338.43375 95.32453125 -1339.6875 94.9765625 C-1357.57029903 90.84684832 -1378.28806765 91.12823242 -1396 96 C-1397.21945312 96.32871094 -1398.43890625 96.65742187 -1399.6953125 96.99609375 C-1414.35859268 101.41956763 -1427.74680701 108.56301082 -1439 119 C-1439.8765625 119.78503906 -1440.753125 120.57007812 -1441.65625 121.37890625 C-1469.91445223 147.972473 -1482.89217315 185.47387442 -1489.34005737 222.76831055 C-1490.16465555 227.53618293 -1491.01862398 232.29884577 -1491.8671875 237.0625 C-1492.12691597 238.52786194 -1492.12691597 238.52786194 -1492.39189148 240.02282715 C-1494.31848234 250.86539534 -1496.37082739 261.68340639 -1498.4375 272.5 C-1498.78296143 274.31575474 -1499.12842048 276.13150994 -1499.47387695 277.94726562 C-1499.7935697 279.62113442 -1500.11346415 281.2949647 -1500.43359375 282.96875 C-1500.5780191 283.72712158 -1500.72244446 284.48549316 -1500.87124634 285.2668457 C-1501.49966917 288.53654434 -1502.1731186 291.77512093 -1503 295 C-1502.26559067 294.99913188 -1501.53118135 294.99826375 -1500.77451719 294.99736932 C-1420.00761794 294.90190903 -1339.24071815 294.80690397 -1258.47381592 294.71398926 C-1257.24848955 294.71257952 -1256.02316318 294.71116978 -1254.76070571 294.70971733 C-1228.06882293 294.67901076 -1201.37694007 294.64837717 -1174.68505712 294.61781773 C-1161.57698468 294.60280991 -1148.46891226 294.58778612 -1135.36083984 294.57275391 C-1134.05710152 294.57125906 -1132.7533632 294.56976422 -1131.41011765 294.56822408 C-1093.70972815 294.52499081 -1056.0093396 294.48100271 -1018.3089518 294.43630695 C-897.03579343 294.2925397 -775.7626312 294.15242752 -456.39564935 293.91127872 C-446.2572792 293.90855642 -436.11891231 293.90383486 -425.98054397 293.89721037 C-359.31350778 293.85382945 -292.66175627 294.12515414 -226 295 C-226 292.69 -226 290.38 -226 288 C-225.37770508 287.93530518 -224.75541016 287.87061035 -224.11425781 287.80395508 C-198.57759328 285.07457763 -168.60699812 280.50818211 -149 262 C-147.43506809 257.87109483 -148.29208015 254.21599061 -149 249.9375 C-154.02398167 214.95797641 -139.73689632 181.36229988 -119.28027344 153.69580078 C-115.99281986 149.34136666 -112.53695935 145.15260757 -109 141 C-108.18273438 140.01 -107.36546875 139.02 -106.5234375 138 C-94.1686993 123.07000586 -80.51444237 109.38999854 -66.74365234 95.78027344 C-61.27696631 90.36602868 -55.94477857 84.90309661 -51 79 C-44.40775988 71.23057415 -44.40775988 71.23057415 -40.5625 68.1875 C-24.31079306 54.59647075 -5.77959464 22.77285361 -1 2 C-0.67 1.34 -0.34 0.68 0 0 Z " fill="#F26E32" transform="translate(1921,0)"></path>
  <path d="M0 0 C3.04715279 0.0133576 6.09415717 0.00816945 9.14132595 0.00312805 C37.72876908 -0.03231075 66.24206283 1.21868202 94.67236328 4.3225708 C94.00469604 13.84703611 91.99161142 23.04019458 90.01611328 32.35772705 C89.63786872 34.1608335 89.26009343 35.96403844 88.88275146 37.76733398 C87.86438443 42.62762123 86.83961008 47.48653702 85.81361389 52.34521866 C84.73256226 57.46995004 83.65732989 62.59590208 82.58154297 67.72174072 C80.81066843 76.15635099 79.0364773 84.59025732 77.26025391 93.02374268 C75.06410308 103.45258035 72.87796489 113.88348628 70.69717598 124.31554604 C64.06535596 156.03844032 57.38687758 187.75024138 50.56998825 219.43391418 C45.09603866 244.87678141 39.70395461 270.3358425 34.39598465 295.81388855 C33.86561771 298.35747317 33.33397896 300.90078882 32.80197144 303.44403076 C31.96642339 307.43944725 31.13448954 311.43559999 30.305336 315.43234825 C30.00153394 316.89442649 29.69665405 318.35628129 29.39055634 319.81788063 C26.69519779 332.69747863 24.31453292 345.3152068 24.29736328 358.5100708 C24.27287109 359.51231689 24.24837891 360.51456299 24.22314453 361.54718018 C24.19227415 369.46543219 25.40615253 376.97261105 31.10986328 382.8225708 C37.70893604 386.68544266 42.99131339 387.23531033 50.47705078 385.7756958 C78.52413756 378.2108327 101.36934792 357.32788662 121.93017578 337.84210205 C124.97918279 334.95821759 128.08432339 332.15735439 131.23486328 329.3850708 C134.65428897 326.33362966 137.65482958 323.14938184 140.60595703 319.6506958 C143.47012389 316.42377056 146.5001474 313.37597267 149.54736328 310.3225708 C150.13171143 309.7337915 150.71605957 309.14501221 151.31811523 308.53839111 C155.5482539 304.3225708 155.5482539 304.3225708 156.67236328 304.3225708 C157.10482168 318.76668119 155.63573033 336.25593483 145.67236328 347.3225708 C145.18977051 347.87106689 144.70717773 348.41956299 144.20996094 348.98468018 C140.16207861 353.56108031 135.9432177 357.95500521 131.67236328 362.3225708 C131.06875977 362.94663818 130.46515625 363.57070557 129.84326172 364.21368408 C122.50258979 371.79480574 115.01276138 378.83441847 106.67236328 385.3225708 C105.33284926 386.40079101 103.99438944 387.48032163 102.65673828 388.56085205 C87.41873994 400.76950792 71.40659353 411.12781025 53.67236328 419.3225708 C52.52638672 419.86526611 51.38041016 420.40796143 50.19970703 420.96710205 C40.95986966 425.15738421 31.50479413 427.93483104 21.67236328 430.3225708 C20.16802734 430.69575439 20.16802734 430.69575439 18.63330078 431.07647705 C1.02234579 434.70524732 -17.78805189 433.88992277 -33.11669922 423.94366455 C-45.91963701 414.5563515 -52.32431157 399.60756277 -54.91748047 384.27545166 C-58.06769728 361.59576576 -53.33042134 339.83657135 -48.82324219 317.72979736 C-46.98200311 308.66419189 -45.22098161 299.58305651 -43.45654297 290.5022583 C-43.28760969 289.63287313 -43.11867641 288.76348797 -42.94462395 287.8677578 C-41.9135479 282.56090878 -41.9135479 282.56090878 -40.88281536 277.25399303 C-39.68080324 271.06730489 -38.47065017 264.88224515 -37.25708008 258.69781494 C-36.76984517 256.2110411 -36.28277464 253.72423513 -35.79577446 251.23741531 C-35.48512586 249.65310857 -35.17383854 248.06892693 -34.86189461 246.48487473 C-34.43213038 244.30211091 -34.00463139 242.11891491 -33.57763672 239.93560791 C-33.33529297 238.70184921 -33.09294922 237.46809052 -32.84326172 236.19694519 C-32.26878058 233.48118407 -32.26878058 233.48118407 -32.32763672 231.3225708 C-32.58641602 231.80161865 -32.84519531 232.2806665 -33.11181641 232.77423096 C-39.67735904 244.82045188 -46.82821921 256.3649477 -54.45263672 267.7600708 C-54.86703003 268.3806134 -55.28142334 269.00115601 -55.70837402 269.64050293 C-65.45413307 284.20714358 -75.71774868 298.37434727 -86.32763672 312.3225708 C-86.78783203 312.93133057 -87.24802734 313.54009033 -87.72216797 314.16729736 C-93.80043163 322.18552558 -100.25338187 329.67952078 -107.18701172 336.9710083 C-109.3072424 339.20381469 -111.333055 341.48899492 -113.32763672 343.83428955 C-118.48387 349.7632476 -124.08793327 355.26887361 -129.64160156 360.82183838 C-131.56459854 362.74701782 -133.47944246 364.68006111 -135.39404297 366.61358643 C-142.39858005 373.65020484 -149.49767371 380.20284925 -157.32763672 386.3225708 C-158.59472848 387.35825501 -159.85936262 388.39695928 -161.12060547 389.4397583 C-191.58858466 414.30458251 -228.61804085 436.28116506 -269.32763672 433.3225708 C-286.59154619 431.02124343 -300.98759813 421.57606761 -311.79638672 408.28741455 C-337.74722166 372.42727107 -340.18597243 325.90503237 -333.828125 283.43829346 C-331.03186422 266.03054705 -326.71397936 249.10174577 -321.32763672 232.3225708 C-321.00843262 231.32677002 -320.68922852 230.33096924 -320.36035156 229.30499268 C-300.84940061 169.58819954 -261.11334583 110.95074077 -211.32763672 72.3225708 C-209.36442755 70.68255661 -207.40631641 69.03642554 -205.45263672 67.3850708 C-199.7411473 62.6230429 -193.92791267 58.02661137 -187.98095703 53.56378174 C-186.89414643 52.74787136 -185.81006732 51.92830749 -184.72900391 51.10479736 C-131.59164506 10.77240451 -65.13741898 -0.38533649 0 0 Z M-167.99951172 79.1819458 C-187.62946383 101.12765419 -201.63657018 129.40314383 -213.70263672 156.0725708 C-214.02468079 156.78289459 -214.34672485 157.49321838 -214.67852783 158.22506714 C-233.87955064 200.72608133 -248.26211336 247.65480139 -252.32763672 294.3225708 C-252.4269751 295.41360107 -252.4269751 295.41360107 -252.52832031 296.52667236 C-252.90308422 300.78973478 -253.16016047 305.04669273 -253.32763672 309.3225708 C-253.36888672 310.22104736 -253.41013672 311.11952393 -253.45263672 312.04522705 C-253.87119085 329.38906398 -251.96294114 348.93653901 -239.66748047 362.09991455 C-232.32203606 368.94339238 -224.96400053 369.90379893 -215.18310547 369.66241455 C-199.37500491 368.26899535 -183.15444163 359.30133424 -170.32763672 350.3225708 C-169.43560547 349.72702393 -168.54357422 349.13147705 -167.62451172 348.5178833 C-155.32476376 339.88117503 -144.79786456 328.59104258 -135.00952148 317.24957275 C-132.23765473 314.07373529 -129.34180856 311.01635296 -126.45263672 307.9475708 C-125.2178216 306.62636743 -123.98344608 305.30475305 -122.74951172 303.98272705 C-120.78646553 301.88076585 -118.81869889 299.78402495 -116.84326172 297.69366455 C-111.811719 292.267311 -107.37717915 286.50649427 -102.98388672 280.56378174 C-99.48699371 275.83854974 -95.89409583 271.20972236 -92.20263672 266.6350708 C-87.63743062 260.97338882 -83.15453411 255.25904884 -78.74560547 249.47491455 C-77.16257241 247.41108955 -75.56156118 245.36090151 -73.94091797 243.32647705 C-66.37955883 233.76823724 -59.83420121 223.61929388 -53.32763672 213.3225708 C-52.49280762 212.00531006 -52.49280762 212.00531006 -51.64111328 210.66143799 C-49.96635468 208.01160204 -48.30117484 205.35602596 -46.64013672 202.6975708 C-46.15440186 201.92477783 -45.66866699 201.15198486 -45.16821289 200.35577393 C-39.9042542 191.85827789 -35.11894639 183.09191382 -30.32763672 174.3225708 C-29.87564911 173.49843689 -29.4236615 172.67430298 -28.95797729 171.82519531 C-16.17352988 148.44699957 -5.74581835 126.79129016 -1.94433594 100.30206299 C-1.32991486 96.15006987 -0.49601644 92.05758243 0.38720703 87.9553833 C0.53247833 87.28025192 0.67774963 86.60512054 0.8274231 85.90953064 C1.25307543 83.9426476 1.68143977 81.97635209 2.10986328 80.0100708 C2.61492917 77.66117061 3.11418304 75.31100849 3.60595703 72.95928955 C3.812771 71.98693359 4.01958496 71.01457764 4.23266602 70.01275635 C4.66055194 67.39483576 4.75450782 64.96955068 4.67236328 62.3225708 C-50.47891758 43.49449002 -123.84689733 31.93090233 -167.99951172 79.1819458 Z " fill="#2D3191" transform="translate(1464.32763671875,424.67742919921875)"></path>
  <path d="M0 0 C1.30558365 -0.00570007 2.6111673 -0.01140015 3.95631409 -0.01727295 C6.70517351 -0.02768221 9.4540046 -0.03358923 12.20288086 -0.03710938 C14.97091996 -0.04147524 17.73864407 -0.05531382 20.5065918 -0.078125 C37.2118009 -0.21319563 53.44632854 0.31890623 69.94140625 3.203125 C69.94140625 6.86928288 68.786074 7.73263949 66.31619263 10.26824951 C65.51446121 11.06794159 65.51446121 11.06794159 64.6965332 11.88378906 C64.13885757 12.45154053 63.58118195 13.01929199 63.00660706 13.60424805 C61.15560099 15.48381608 59.29341499 17.35180078 57.4296875 19.21875 C56.14106482 20.5170075 54.85267156 21.81549275 53.5644989 23.11419678 C50.8602772 25.83640016 48.14990495 28.55230959 45.43579102 31.26464844 C41.95441506 34.74571932 38.49413602 38.24697064 35.03884602 41.75391006 C32.38367187 44.44239528 29.71501934 47.11717931 27.04234886 49.78826141 C25.76046392 51.07369354 24.48345717 52.3640092 23.21142006 53.65918732 C21.43257467 55.46734018 19.63582798 57.25558639 17.83325195 59.04003906 C17.3088855 59.58126404 16.78451904 60.12248901 16.2442627 60.68011475 C14.74458313 62.1416626 14.74458313 62.1416626 11.94140625 64.203125 C8.23775613 64.04943719 5.51568248 62.6431668 2.2734375 60.91015625 C0.94723389 60.21599609 0.94723389 60.21599609 -0.40576172 59.5078125 C-1.34307129 59.01539063 -2.28038086 58.52296875 -3.24609375 58.015625 C-12.95646806 53.05222416 -22.53274683 49.05052729 -33.05859375 46.203125 C-34.27546875 45.86539063 -35.49234375 45.52765625 -36.74609375 45.1796875 C-54.62889278 41.04997332 -75.3466614 41.33135742 -93.05859375 46.203125 C-94.27804687 46.53183594 -95.4975 46.86054687 -96.75390625 47.19921875 C-111.41718643 51.62269263 -124.80540076 58.76613582 -136.05859375 69.203125 C-136.93515625 69.98816406 -137.81171875 70.77320312 -138.71484375 71.58203125 C-166.97285523 98.17541849 -179.95080044 135.67661893 -186.39837646 172.97088623 C-187.05355894 176.75774786 -187.72925938 180.5408692 -188.40386963 184.3243103 C-188.7551271 186.29438969 -189.10550611 188.26462589 -189.45501709 190.23501587 C-191.20840923 200.10449903 -193.04074091 209.95850654 -194.90878296 219.80688477 C-195.25631135 221.64199309 -195.60205969 223.47743949 -195.94595337 225.31323242 C-196.42469499 227.86847442 -196.90883821 230.42263393 -197.39453125 232.9765625 C-197.53379532 233.72461151 -197.67305939 234.47266052 -197.81654358 235.24337769 C-198.61928667 239.42151255 -199.69991652 243.12709332 -201.05859375 247.203125 C-226.13859375 247.203125 -251.21859375 247.203125 -277.05859375 247.203125 C-277.05859375 260.733125 -277.05859375 274.263125 -277.05859375 288.203125 C-254.28859375 288.203125 -231.51859375 288.203125 -208.05859375 288.203125 C-210.35786377 304.29801511 -210.35786377 304.29801511 -211.80078125 312.0390625 C-211.9646785 312.93073624 -212.12857574 313.82240997 -212.29743958 314.74110413 C-212.83991262 317.68732353 -213.38661988 320.63273811 -213.93359375 323.578125 C-214.33061335 325.72662017 -214.72750062 327.8751398 -215.12426758 330.02368164 C-221.38777306 363.895896 -227.74084784 397.75192077 -234.16778564 431.59350777 C-235.37680582 437.95978259 -236.58500547 444.32621324 -237.79327393 450.69263077 C-238.24596704 453.07745746 -238.69890749 455.46223709 -239.15185547 457.84701538 C-242.60475659 476.03257566 -245.99177223 494.22586781 -249.21517944 512.45379639 C-263.86143177 595.19581921 -281.34117212 679.22052418 -316.05859375 756.203125 C-316.76145508 757.76812744 -316.76145508 757.76812744 -317.47851562 759.36474609 C-331.48328987 790.25967537 -348.98132592 819.96044291 -372.03515625 844.99609375 C-373.80308238 846.92443017 -375.49705421 848.89160478 -377.18359375 850.890625 C-392.00849782 867.75565349 -409.06478303 881.31621981 -428.05859375 893.203125 C-428.64302246 893.57356934 -429.22745117 893.94401367 -429.82958984 894.32568359 C-468.46147328 918.4799254 -512.26625216 924.62571765 -556.86987305 924.40893555 C-560.72386387 924.39073001 -564.57761125 924.3884266 -568.43164062 924.38867188 C-584.99220867 924.36453399 -601.51473711 923.93877542 -618.05859375 923.203125 C-618.30642524 918.81303341 -617.52357295 917.01574065 -614.60498047 913.64990234 C-614.11529785 913.11059082 -613.62561523 912.5712793 -613.12109375 912.015625 C-612.62109863 911.44537598 -612.12110352 910.87512695 -611.60595703 910.28759766 C-610.10332099 908.58046934 -608.58442999 906.8895221 -607.05859375 905.203125 C-606.26066406 904.31753906 -605.46273437 903.43195312 -604.640625 902.51953125 C-603.17309332 900.8961555 -601.70305082 899.27504589 -600.23046875 897.65625 C-597.97037222 895.1034791 -595.82262275 892.48294823 -593.68359375 889.828125 C-590.00844705 885.28221184 -586.15065645 880.97441885 -582.16040039 876.70825195 C-578.18462602 872.42734863 -574.5834296 867.92622829 -571.03125 863.28515625 C-568.79374714 860.92359383 -568.22714219 860.55183263 -565.05859375 860.203125 C-562.43197571 860.70151644 -559.9302171 861.27670361 -557.35546875 861.96875 C-556.6000177 862.16281433 -555.84456665 862.35687866 -555.06622314 862.55682373 C-552.64460103 863.1800138 -550.22647681 863.81559535 -547.80859375 864.453125 C-508.89946596 874.63905288 -468.20154447 879.62517011 -431.74536133 858.87695312 C-425.03130349 854.82685746 -419.56998006 849.73146942 -414.05859375 844.203125 C-413.40632812 843.61015625 -412.7540625 843.0171875 -412.08203125 842.40625 C-406.3829904 837.14960045 -402.20733069 830.6978739 -398.05859375 824.203125 C-397.51332031 823.35959473 -397.51332031 823.35959473 -396.95703125 822.49902344 C-367.31747327 775.82738134 -362.44673564 714.23639363 -353.38273811 660.83815193 C-351.24412947 648.2420183 -349.05138698 635.65611935 -346.80859375 623.078125 C-346.6463028 622.16753326 -346.48401184 621.25694153 -346.31680298 620.3187561 C-344.16716345 608.27267306 -341.97120477 596.2354723 -339.74609375 584.203125 C-332.37504924 544.33067249 -325.22776475 504.42760841 -318.43359375 464.453125 C-314.67062063 442.31738266 -310.85418062 420.19836024 -306.74194336 398.12426758 C-302.75090798 376.68360743 -298.90784705 355.21643545 -295.05441666 333.75069809 C-294.49679615 330.64453766 -293.93901881 327.53840543 -293.38119507 324.43228149 C-291.27238184 312.68945877 -289.1647968 300.94641616 -287.05859375 289.203125 C-288.27159653 289.20534561 -289.4845993 289.20756622 -290.73435974 289.20985413 C-302.13905979 289.23008372 -313.54375623 289.24509626 -324.94847012 289.25493717 C-330.81241539 289.26016646 -336.67634624 289.26726494 -342.5402832 289.27856445 C-348.19421087 289.2893917 -353.84812462 289.29540149 -359.50206184 289.29800224 C-361.66432985 289.29985679 -363.82659706 289.30347795 -365.98885918 289.30885506 C-369.00618032 289.31606333 -372.02344318 289.31711603 -375.04077148 289.31665039 C-375.94419785 289.32024567 -376.84762421 289.32384094 -377.77842712 289.32754517 C-383.94454159 289.31717716 -383.94454159 289.31717716 -385.05859375 288.203125 C-385.17216099 285.1967425 -385.22278287 282.21420058 -385.2265625 279.20703125 C-385.2298909 278.3031517 -385.2332193 277.39927216 -385.23664856 276.46800232 C-385.24172171 274.55215973 -385.24405677 272.63630828 -385.24389648 270.72045898 C-385.24608188 267.78159082 -385.2642304 264.84309848 -385.28320312 261.90429688 C-385.28613712 260.04687629 -385.28812188 258.18945391 -385.2890625 256.33203125 C-385.29624802 255.44866592 -385.30343353 254.5653006 -385.31083679 253.65516663 C-385.28741514 247.43194639 -385.28741514 247.43194639 -383.05859375 245.203125 C-381.20390892 244.95702934 -381.20390892 244.95702934 -378.9078064 244.96261597 C-378.0383992 244.95986664 -377.168992 244.95711731 -376.27323914 244.95428467 C-374.83933586 244.9650705 -374.83933586 244.9650705 -373.37646484 244.97607422 C-372.37155502 244.97578217 -371.3666452 244.97549011 -370.33128357 244.97518921 C-366.99811268 244.97658644 -363.66516326 244.99216618 -360.33203125 245.0078125 C-358.02560549 245.01154123 -355.71917815 245.01438886 -353.41275024 245.01638794 C-347.33324839 245.02403541 -341.25384164 245.04369346 -335.17437744 245.0657959 C-328.97433763 245.08623037 -322.7742825 245.09538452 -316.57421875 245.10546875 C-304.4023019 245.1269383 -292.23045572 245.16108765 -280.05859375 245.203125 C-279.42015952 242.82032418 -278.78249551 240.43732161 -278.14526367 238.05419922 C-277.96610161 237.38583542 -277.78693954 236.71747162 -277.60234833 236.02885437 C-276.58555969 232.22366051 -275.60199489 228.4132189 -274.671875 224.5859375 C-259.11549418 161.15463137 -222.24156316 98.50582184 -170.05859375 58.203125 C-168.62386719 57.04296875 -168.62386719 57.04296875 -167.16015625 55.859375 C-145.65039994 38.73825915 -120.90777596 25.45586663 -95.05859375 16.203125 C-94.30755371 15.93306641 -93.55651367 15.66300781 -92.78271484 15.38476562 C-63.1107184 4.9236918 -31.39294207 0.10935192 0 0 Z " fill="#2E3191" transform="translate(618.05859375,49.796875)"></path>
  <path d="M0 0 C0.98765248 -0.00470579 1.97530497 -0.00941159 2.99288632 -0.01425998 C4.08367565 -0.00924223 5.17446498 -0.00422447 6.29830854 0.00094534 C7.45905872 -0.00161084 8.6198089 -0.00416701 9.81573332 -0.00680064 C13.06277496 -0.01190095 16.30966579 -0.00795299 19.55669804 -0.00033257 C23.09286157 0.00576927 26.62900981 0.00028518 30.16517367 -0.00374632 C36.39501527 -0.00923153 42.62482037 -0.0072151 48.85466016 -0.00042403 C58.18092755 0.00970273 67.5071687 0.00832734 76.83343959 0.00464281 C92.72507358 -0.00129928 108.61669292 0.00226907 124.50832509 0.01093138 C140.62135183 0.01967577 156.73437099 0.02407792 172.84740018 0.02312697 C173.86364769 0.02306958 174.87989521 0.0230122 175.9269381 0.02295308 C181.10843328 0.02264034 186.28992844 0.02225644 191.4714236 0.0218474 C229.01324199 0.0190295 266.55505362 0.02590414 304.09686993 0.03788222 C341.28562277 0.04971934 378.47437271 0.05743083 415.66312741 0.05958784 C417.39429698 0.05969108 417.39429698 0.05969108 419.16043967 0.0597964 C429.70118445 0.06042278 440.24192923 0.06099817 450.78267401 0.06151235 C476.98805523 0.06279129 503.19343638 0.06471003 529.39881753 0.06706274 C530.59227143 0.06716938 531.78572533 0.06727601 533.0153445 0.06738588 C591.09742504 0.07263137 649.17950366 0.08524749 707.26158284 0.09846342 C727.4222477 0.10304666 747.58291257 0.10759735 767.74357747 0.11201323 C769.61907765 0.11242408 769.61907765 0.11242408 771.53246673 0.11284322 C829.63626588 0.12552684 887.74006536 0.1329811 945.84386553 0.13908282 C949.61510968 0.13947895 953.38635382 0.13987733 957.15759797 0.14027618 C982.14942337 0.14291569 1007.14124879 0.145465 1032.13307421 0.1479539 C1081.86237879 0.15290715 1131.5916833 0.15839053 1181.32098778 0.16423799 C1183.6893306 0.16451647 1186.05767342 0.16479458 1188.42601624 0.16507232 C1295.06977376 0.17758158 1401.71352988 0.19625843 1508.35728597 0.21760405 C1509.35604656 0.21780392 1510.35480715 0.21800379 1511.38383322 0.21820972 C1561.33697965 0.22821104 1611.29012602 0.23855919 1661.24327229 0.24934233 C1654.79619623 14.03494201 1648.05220827 27.63147039 1641.24327229 41.24934233 C1032.39327229 41.24934233 423.54327229 41.24934233 -203.75672771 41.24934233 C-203.75672771 38.27934233 -203.75672771 35.30934233 -203.75672771 32.24934233 C-202.69333171 32.31862944 -201.62993571 32.38791655 -200.5343156 32.45930327 C-186.42271578 33.32087831 -172.32956244 33.49111229 -158.19422771 33.49934233 C-156.98661784 33.50034941 -155.77900798 33.50135649 -154.53480388 33.50239409 C-126.96318442 33.48690544 -99.79347143 32.05841287 -72.75672771 26.24934233 C-71.79685954 26.04470366 -70.83699138 25.84006499 -69.8480363 25.62922514 C-48.77866093 21.01911488 -19.62178937 -0.00294511 0 0 Z " fill="#188D3C" transform="translate(203.75672770664096,945.7506576701999)"></path>
  <path d="M0 0 C-1.34501764 9.40459376 -3.08095833 18.68996206 -5.01953125 27.98828125 C-5.31733581 29.42923711 -5.6148224 30.87025871 -5.91201782 32.31134033 C-6.54510567 35.3784333 -7.18009295 38.44512406 -7.81661987 41.51150513 C-8.83271291 46.40721473 -9.84377545 51.3039547 -10.85375977 56.20092773 C-11.02430217 57.02776093 -11.19484457 57.85459414 -11.37055492 58.70648289 C-11.71656308 60.38407071 -12.06255577 62.06166172 -12.4085331 63.73925591 C-12.93134567 66.27366321 -13.45454048 68.80799134 -13.97782898 71.34230042 C-17.15737699 86.74370491 -20.30761145 102.15091991 -23.4375 117.5625 C-23.82612213 119.47545868 -23.82612213 119.47545868 -24.22259521 121.42706299 C-28.84043645 144.17130915 -33.39261688 166.92858043 -37.9375 189.6875 C-42.92703648 214.67304404 -47.93265088 239.65510775 -53 264.625 C-53.14044235 265.31719383 -53.2808847 266.00938766 -53.42558289 266.72255707 C-56.94018629 284.04274893 -60.480476 301.35756446 -64.04296875 318.66796875 C-70.2612766 348.88662201 -76.47923589 379.10377502 -82.4375 409.375 C-82.6692392 410.54825836 -82.90097839 411.72151672 -83.13973999 412.93032837 C-83.78267101 416.1898925 -84.42151518 419.45022507 -85.05859375 422.7109375 C-85.24319153 423.64668106 -85.42778931 424.58242462 -85.61798096 425.54652405 C-88.86646042 442.29123865 -92.11428139 464.00803261 -82.609375 479.2265625 C-78.47334529 484.51632682 -73.79806452 486.90896806 -67.1875 487.9375 C-40.58239067 489.5531949 -12.99600302 469.47736365 6 453 C6.55848633 452.5167627 7.11697266 452.03352539 7.69238281 451.53564453 C10.2841657 449.29226303 12.87440816 447.0472854 15.4543457 444.7902832 C19.08020738 441.62533223 22.75732451 438.57501539 26.5625 435.625 C30.09022671 432.85907474 32.99204896 429.98035507 35.74609375 426.4453125 C37 425 37 425 40 423 C40.99 423 41.98 423 43 423 C43.1238948 427.89289165 43.21447509 432.78486427 43.2746582 437.67895508 C43.29975347 439.34252839 43.33383796 441.00599196 43.37719727 442.66918945 C43.4380746 445.06489153 43.46625769 447.45913251 43.48828125 449.85546875 C43.51408768 450.5952446 43.5398941 451.33502045 43.56648254 452.09721375 C43.56859567 456.01593036 43.20187081 457.75329984 40.69018555 460.82275391 C39.3585437 461.90049072 39.3585437 461.90049072 38 463 C37.39607422 463.52875732 36.79214844 464.05751465 36.16992188 464.60229492 C35.60853516 465.05709229 35.04714844 465.51188965 34.46875 465.98046875 C33.82993896 466.49939697 33.19112793 467.0183252 32.53295898 467.55297852 C31.86208252 468.09237061 31.19120605 468.6317627 30.5 469.1875 C29.79367432 469.75847412 29.08734863 470.32944824 28.35961914 470.91772461 C23.06039403 475.18586527 17.68771182 479.34633103 12.27734375 483.47265625 C8.64063684 486.26017164 5.07139355 489.12961063 1.5 492 C0.2202145 493.02233877 -1.05973174 494.04447634 -2.33984375 495.06640625 C-4.59748217 496.86981744 -6.8363768 498.68934495 -9.06640625 500.52734375 C-18.24390857 507.91002814 -28.22672066 513.74002923 -38.44970703 519.55029297 C-40.59828321 520.77164519 -42.73546296 522.01017824 -44.87109375 523.25390625 C-73.67682592 539.43873874 -109.46496562 551.0080221 -142.578125 543.09765625 C-153.48431605 539.59920912 -161.93338974 534.12830517 -170 526 C-170.9075 525.154375 -171.815 524.30875 -172.75 523.4375 C-184.99508289 510.17199353 -189.92275753 493.41070133 -190.82421875 475.61328125 C-190.93465924 472.99844518 -190.93465924 472.99844518 -191.5546875 470.48779297 C-192.15804486 465.76215522 -191.74205924 461.31210028 -191.30078125 456.58203125 C-191.20839676 455.56808792 -191.11601227 454.55414459 -191.02082825 453.50947571 C-189.94815625 442.4729697 -188.13715464 431.59765223 -186.1875 420.6875 C-185.99337524 419.58355896 -185.79925049 418.47961792 -185.59924316 417.34222412 C-182.03040157 397.05367747 -178.08574288 376.84282085 -174.05725193 356.64131641 C-168.33044918 327.91747486 -162.84952706 299.14785074 -157.375 270.375 C-155.56365272 260.85655113 -153.75150719 251.33825484 -151.9375 241.8203125 C-151.72019352 240.68009518 -151.50288704 239.53987785 -151.27899551 238.36510849 C-148.6562236 224.60933462 -146.01605945 210.8573299 -143.3125 197.1171875 C-143.17972279 196.44237209 -143.04694557 195.76755669 -142.91014481 195.07229233 C-141.65130168 188.67971294 -140.38363263 182.288938 -139.10693359 175.89990234 C-137.10174237 165.83795164 -135.22807288 155.77387845 -133.60009766 145.64355469 C-133.24820105 143.50697824 -132.87105208 141.37379286 -132.43432617 139.25292969 C-130.19223515 127.62279142 -131.32213725 114.14240484 -137.25 103.82421875 C-142.76435975 96.50829261 -150.80634886 93.95091259 -159.5625 92.6875 C-169.87684794 91.47731278 -178.6208513 92.24860339 -188.75 94.5 C-190.55621826 94.89179443 -190.55621826 94.89179443 -192.39892578 95.29150391 C-202.90487863 97.62932604 -213.25231018 100.43792867 -223.58105469 103.45898438 C-224.72735352 103.78962891 -225.87365234 104.12027344 -227.0546875 104.4609375 C-228.05999512 104.75790527 -229.06530273 105.05487305 -230.10107422 105.36083984 C-233.15298047 106.0337294 -235.8847775 106.11400684 -239 106 C-239.16956861 88.70400208 -239.16956861 88.70400208 -238.8125 82.1875 C-238.77769531 81.47980469 -238.74289062 80.77210938 -238.70703125 80.04296875 C-237.5978335 76.83793879 -235.51653089 75.22538165 -233 73 C-230.10717773 71.69482422 -230.10717773 71.69482422 -226.74609375 70.6796875 C-225.78466713 70.38069046 -225.78466713 70.38069046 -224.80381775 70.07565308 C-223.34839094 69.62380368 -221.89091073 69.17853404 -220.43182373 68.73864746 C-217.81363287 67.94339244 -215.20562761 67.11971617 -212.59814453 66.29003906 C-207.27824711 64.59765923 -201.95376856 62.92022463 -196.62811279 61.24606323 C-190.3277991 59.26518352 -184.02877468 57.28022152 -177.73046875 55.29296875 C-177.06337639 55.0824972 -176.39628403 54.87202564 -175.70897675 54.65517616 C-164.85621111 51.22975009 -154.01363265 47.773083 -143.17578125 44.30078125 C-142.42612846 44.06063734 -141.67647568 43.82049343 -140.90410614 43.57307243 C-137.85773907 42.59717128 -134.81141039 41.62115033 -131.7651062 40.64505291 C-105.2817613 32.15930202 -78.77355714 23.77626365 -52.18798828 15.61523438 C-38.57589298 11.43419972 -24.99734587 7.16767737 -11.48022461 2.68823242 C-10.37815674 2.32576416 -9.27608887 1.9632959 -8.140625 1.58984375 C-6.74118652 1.12372681 -6.74118652 1.12372681 -5.31347656 0.64819336 C-3 0 -3 0 0 0 Z " fill="#F26E31" transform="translate(1897,372)"></path>
  <path d="M0 0 C0.70437195 0.06724274 1.4087439 0.13448547 2.13446045 0.20376587 C21.8119997 2.11637255 39.00547223 6.55215826 57.4375 13.75 C55.88800152 24.71614177 53.35614296 35.4776743 50.91650391 46.27197266 C50.19883049 49.44982861 49.48768429 52.62909172 48.77734375 55.80859375 C46.34729039 66.63589206 43.8196499 77.4345432 41.140625 88.203125 C40.88512878 89.23338806 40.62963257 90.26365112 40.36639404 91.32513428 C40.00955536 92.7444223 40.00955536 92.7444223 39.64550781 94.19238281 C39.43597473 95.02666809 39.22644165 95.86095337 39.01055908 96.72052002 C38.4375 98.75 38.4375 98.75 37.4375 100.75 C28.5275 100.75 19.6175 100.75 10.4375 100.75 C10.7675 97.45 11.0975 94.15 11.4375 90.75 C12.12694495 76.38467979 12.19194708 64.38817471 2.4609375 52.87109375 C-10.09633011 39.70778041 -26.96270199 32.95489114 -45.05078125 32.31640625 C-47.65874812 32.2928517 -50.26700675 32.29207353 -52.875 32.3125 C-53.89555984 32.31756058 -53.89555984 32.31756058 -54.93673706 32.32272339 C-74.97415284 32.46657693 -92.24004198 37.2069242 -107.5625 50.75 C-108.42875 51.513125 -109.295 52.27625 -110.1875 53.0625 C-121.85781067 66.26837786 -124.68810875 79.26001566 -123.73388672 96.50732422 C-122.55172877 111.97641672 -114.36109255 127.98472724 -104.5625 139.75 C-104.13533691 140.26369141 -103.70817383 140.77738281 -103.26806641 141.30664062 C-100.9347523 144.10363145 -98.57904793 146.88031389 -96.20703125 149.64453125 C-93.33487623 152.99962401 -90.586105 156.44458877 -87.84375 159.90625 C-84.85132787 163.63652964 -81.79879153 167.31575466 -78.75 171 C-74.40274808 176.25583969 -70.11958424 181.54936948 -65.9375 186.9375 C-61.72672355 192.35734201 -57.32967973 197.58674646 -52.83813477 202.77539062 C-49.28638829 206.88360253 -45.85344434 211.06806211 -42.484375 215.328125 C-40.38906876 217.96855157 -38.26110376 220.57998023 -36.125 223.1875 C-35.3721875 224.10917969 -34.619375 225.03085937 -33.84375 225.98046875 C-32.3568579 227.78561686 -30.8573843 229.58049719 -29.34375 231.36328125 C-13.53322715 250.15219485 -1.60295032 271.64913606 -0.5625 296.75 C-0.48515625 298.22533203 -0.48515625 298.22533203 -0.40625 299.73046875 C0.43689298 330.25927084 -11.51499603 358.00300827 -32.15283203 380.19604492 C-42.03867185 390.59078883 -52.32975772 399.23462851 -64.5625 406.75 C-65.41448975 407.28318848 -65.41448975 407.28318848 -66.28369141 407.82714844 C-87.5695814 421.05707131 -111.94052525 428.7690825 -136.5625 432.75 C-137.29275391 432.86859375 -138.02300781 432.9871875 -138.77539062 433.109375 C-187.39528296 440.54171523 -239.41025484 431.00450647 -284.5625 412.75 C-284.5625 407.65128345 -283.28038426 406.92243037 -279.8125 403.3125 C-278.78094467 402.22685253 -277.74970426 401.14090577 -276.71875 400.0546875 C-275.92210937 399.22469238 -275.92210937 399.22469238 -275.109375 398.37792969 C-272.79485093 395.94212689 -270.56275282 393.43263327 -268.3125 390.9375 C-259.56837643 381.37735935 -250.24408711 372.3477614 -241.05102539 363.22265625 C-238.54950086 360.73708376 -236.05480418 358.24481461 -233.5625 355.75 C-232.77939453 356.18699219 -232.77939453 356.18699219 -231.98046875 356.6328125 C-194.1993828 377.67376755 -149.9054376 400.57791223 -105.4453125 388.93359375 C-91.20989413 384.60501234 -78.00227253 376.82367925 -70.8125 363.36328125 C-70.4 362.50089844 -69.9875 361.63851563 -69.5625 360.75 C-69.15 359.93917969 -68.7375 359.12835937 -68.3125 358.29296875 C-62.25968129 343.93854104 -63.90833751 323.99596247 -69.5625 309.75 C-75.11460229 296.91037746 -82.00132985 286.18707636 -91.5703125 275.98828125 C-94.6739436 272.66383443 -97.62312409 269.21956017 -100.5625 265.75 C-105.29071976 260.1822972 -110.16133289 254.77127062 -115.1171875 249.40625 C-119.26638665 244.89913272 -123.26950804 240.27480269 -127.234375 235.60546875 C-132.83258973 229.02281046 -138.51735613 222.55502059 -144.40625 216.23046875 C-147.62610305 212.77210807 -150.7779329 209.26981269 -153.86328125 205.69140625 C-155.11174158 204.26500445 -156.38351253 202.85891961 -157.66796875 201.46484375 C-175.91857578 181.6436165 -187.00219621 159.16486396 -187.5625 131.75 C-187.60117187 130.79480469 -187.63984375 129.83960938 -187.6796875 128.85546875 C-188.444949 96.41688403 -172.68209586 71.52808935 -151.14404297 48.8293457 C-112.68040122 9.34348322 -53.54345197 -5.13026641 0 0 Z " fill="#2D3191" transform="translate(1018.5625,419.25)"></path>
  <path d="M0 0 C1.02694977 0.00090637 1.02694977 0.00090637 2.074646 0.00183105 C28.24034906 0.06428812 56.44497442 2.28498721 80.25 14.1875 C79.54830518 23.08324083 77.51884981 31.67997373 75.57421875 40.3671875 C75.39257486 41.18263157 75.21093098 41.99807564 75.02378273 42.83823013 C74.06498393 47.1417583 73.10049217 51.44396252 72.13110352 55.74511719 C71.13181667 60.18399755 70.15191297 64.62692673 69.17628765 69.07105827 C68.42073232 72.49635115 67.65114815 75.91838002 66.87766457 79.33966446 C66.5100153 80.97715794 66.14764698 82.61584643 65.79068565 84.25570297 C65.29152321 86.54242682 64.77269487 88.82382012 64.2487793 91.10498047 C64.10576889 91.78136063 63.96275848 92.45774078 63.81541443 93.15461731 C63.11069842 96.13542707 62.50122173 97.94108451 60.29115295 100.10887146 C57.60238315 101.52972718 55.64174186 101.52885758 52.609375 101.48046875 C51.53945313 101.47080078 50.46953125 101.46113281 49.3671875 101.45117188 C47.70042969 101.4134668 47.70042969 101.4134668 46 101.375 C44.31003906 101.35469727 44.31003906 101.35469727 42.5859375 101.33398438 C39.80680736 101.29865645 37.02864637 101.2493252 34.25 101.1875 C34.17283461 96.63474204 34.25855145 92.64150749 35.25 88.1875 C36.36801027 74.57787492 32.61598555 62.66607526 24.125 52.0625 C13.3405292 40.34632546 -3.92748965 33.95285745 -19.57226562 33.01904297 C-43.31475514 32.12514647 -66.63337902 35.23654996 -85.25 51.3515625 C-95.58989629 61.24929217 -100.76529263 72.17674342 -101.17456055 86.62841797 C-101.27232818 106.43650934 -94.4698807 124.91460595 -81.75 140.1875 C-81.32283691 140.70119141 -80.89567383 141.21488281 -80.45556641 141.74414062 C-78.1222523 144.54113145 -75.76654793 147.31781389 -73.39453125 150.08203125 C-70.52543632 153.43354938 -67.77979324 156.87510133 -65.0390625 160.33203125 C-61.99830298 164.12519714 -58.9061128 167.87489379 -55.8125 171.625 C-55.20277344 172.36411621 -54.59304688 173.10323242 -53.96484375 173.86474609 C-52.77053707 175.31236137 -51.57620195 176.7599532 -50.38183594 178.20751953 C-46.824784 182.52345179 -43.28832761 186.85621385 -39.75 191.1875 C-38.25014304 193.02095036 -36.7501406 194.85428171 -35.25 196.6875 C-17.25 218.6875 -17.25 218.6875 -14.99609375 221.44921875 C-13.51819197 223.25097378 -12.0314158 225.04549207 -10.53515625 226.83203125 C10.65296644 252.26522597 24.81476205 280.24256891 22.25 314.1875 C19.78588783 338.22970558 9.33982727 358.70962861 -5.75 377.1875 C-6.430625 378.0640625 -7.11125 378.940625 -7.8125 379.84375 C-9.57688895 381.97809147 -11.32774307 383.71754289 -13.4375 385.5 C-15.55240946 387.29844491 -17.6478811 389.09160786 -19.671875 390.9921875 C-30.96353421 401.53982266 -43.85760271 409.9586365 -57.89599609 416.34228516 C-59.61452501 417.12573882 -61.31782047 417.94237652 -63.01953125 418.76171875 C-90.08640061 431.23146147 -120.62180968 435.41221883 -150.1875 435.4375 C-150.90420868 435.43817474 -151.62091736 435.43884949 -152.35934448 435.43954468 C-190.65482211 435.38292978 -227.15905127 426.99578082 -262.75 413.1875 C-261.45176525 409.37187605 -260.00033142 407.11659121 -257.0625 404.375 C-254.45304099 401.92242229 -252.05136187 399.39767743 -249.73046875 396.67578125 C-244.22183594 390.31898567 -238.12959716 384.51105113 -232.14746094 378.60546875 C-226.63632383 373.1585325 -221.15922505 367.73276628 -216.15234375 361.80859375 C-214.75193675 360.18973886 -213.28116482 358.68231669 -211.75 357.1875 C-206.87038267 358.39832316 -203.34053787 359.85391532 -199.125 362.6875 C-178.55082971 375.89621553 -154.53396327 384.86740295 -130.75 390.1875 C-129.13351562 390.55681641 -129.13351562 390.55681641 -127.484375 390.93359375 C-104.17558362 395.35738269 -80.10824892 392.37150718 -60.21875 379.0546875 C-49.47913168 370.93200149 -44.43845984 359.05915633 -42.22265625 346.04296875 C-39.44349633 323.3732924 -47.48607259 303.29515461 -60.75 285.1875 C-63.62931889 281.7354989 -66.66924754 278.45950723 -69.75 275.1875 C-71.29609019 273.48316904 -72.83780173 271.77485521 -74.375 270.0625 C-75.12007812 269.23492188 -75.86515625 268.40734375 -76.6328125 267.5546875 C-78.5200298 265.44462536 -80.39012181 263.32164594 -82.25 261.1875 C-87.68275375 254.95727781 -93.22607049 248.8293255 -98.84570312 242.76733398 C-103.67864099 237.54537487 -108.24052675 232.18331692 -112.703125 226.63671875 C-114.96718586 223.92762302 -117.39782959 221.50810854 -119.9375 219.0625 C-123.0476492 215.84510428 -125.75980528 212.29693127 -128.5625 208.8125 C-130.37769499 206.63426601 -132.2113075 204.65068537 -134.25 202.6875 C-153.43124412 183.94924073 -164.51757232 157.941178 -165.0625 131.125 C-165.11059494 116.25297627 -162.15555947 100.62486079 -155.75 87.1875 C-154.99589844 85.59615234 -154.99589844 85.59615234 -154.2265625 83.97265625 C-150.28401005 76.18935434 -145.46887184 69.46454383 -139.9921875 62.7265625 C-138.81790079 61.27162865 -137.67355798 59.79267373 -136.53125 58.3125 C-109.63047123 24.0042604 -65.69712973 7.25811481 -23.75 1.1875 C-23.05326172 1.0836499 -22.35652344 0.9797998 -21.63867188 0.87280273 C-14.45421173 -0.06869571 -7.23442083 -0.01178422 0 0 Z " fill="#2D3191" transform="translate(643.75,418.8125)"></path>
  <path d="M0 0 C1.32 0 2.64 0 4 0 C4.89109627 38.34912766 4.29200001 78.26161714 -3 116 C-3.17756836 116.9684082 -3.35513672 117.93681641 -3.53808594 118.93457031 C-11.2511922 160.44235607 -27.40472001 201.33706922 -57 232 C-58.20076172 233.29550781 -58.20076172 233.29550781 -59.42578125 234.6171875 C-77.35212365 253.45304973 -102.03028948 265.12104813 -128.06079102 266.4362793 C-138.14134166 267.00134974 -143.41138997 270.54657279 -151.0859375 276.890625 C-170.96730943 293.20303857 -200.06229141 297.41280826 -225 296 C-226 295 -226 295 -226.0625 291.4375 C-226.041875 290.303125 -226.02125 289.16875 -226 288 C-225.06655762 287.90295776 -225.06655762 287.90295776 -224.11425781 287.80395508 C-198.57759328 285.07457763 -168.60699812 280.50818211 -149 262 C-147.43506809 257.87109483 -148.29208015 254.21599061 -149 249.9375 C-154.02398167 214.95797641 -139.73689632 181.36229988 -119.28027344 153.69580078 C-115.99281986 149.34136666 -112.53695935 145.15260757 -109 141 C-108.18273438 140.01 -107.36546875 139.02 -106.5234375 138 C-94.1686993 123.07000586 -80.51444237 109.38999854 -66.74365234 95.78027344 C-61.27696631 90.36602868 -55.94477857 84.90309661 -51 79 C-44.40775988 71.23057415 -44.40775988 71.23057415 -40.5625 68.1875 C-24.31079306 54.59647075 -5.77959464 22.77285361 -1 2 C-0.67 1.34 -0.34 0.68 0 0 Z " fill="#188D3C" transform="translate(1921,0)"></path>
  <path d="M0 0 C9.20172473 6.58871588 14.94654663 14.81657705 17 26 C18.13060647 37.08545859 16.06601358 47.16748302 9 56 C1.55165011 64.88140533 -7.40472056 69.35892609 -18.890625 70.90625 C-29.65604417 71.2308355 -39.31377525 67.135622 -47.21875 59.99609375 C-53.66461133 53.27363763 -58.4790527 44.90776287 -59.07421875 35.453125 C-58.6594172 21.74284233 -54.88587084 12.49481583 -45 3 C-32.2908231 -7.31561525 -14.04315139 -8.54171064 0 0 Z " fill="#7F4007" transform="translate(1741,199)"></path>
  <path d="M0 0 C2 1 2 1 2 1 Z " fill="#F06E30" transform="translate(1768,233)"></path>
</svg>
